M48
; DRILL file {KiCad (5.1.5)-3} date 08/05/2021 16:42:23
; FORMAT={-:-/ absolute / metric / decimal}
; #@! TF.CreationDate,2021-05-08T16:42:23+02:00
; #@! TF.GenerationSoftware,Kicad,Pcbnew,(5.1.5)-3
; #@! TF.FileFunction,Plated,1,2,PTH
FMAT,2
METRIC
T1C0.800
T2C1.200
T3C1.300
%
G90
G05
T1
X150.544Y-48.0
X145.794Y-43.0
X145.794Y-48.0
X155.594Y-47.75
X168.294Y-47.75
X155.544Y-43.0
X168.244Y-43.0
X145.794Y-53.25
X145.794Y-55.79
X145.794Y-58.33
X145.794Y-60.87
X153.414Y-53.25
X153.414Y-55.79
X153.414Y-58.33
X153.414Y-60.87
X157.294Y-52.88
X157.294Y-60.5
X150.544Y-43.0
T2
X137.584Y-44.0
X137.584Y-47.5
X137.584Y-54.5
X137.584Y-58.0
X137.584Y-61.5
T3
X163.044Y-52.25
X165.544Y-62.25
X168.044Y-52.25
T0
M30
